<?xml version="1.0" encoding="UTF-8"?>
<svg id="a" data-name="Capa 2" xmlns="http://www.w3.org/2000/svg" width="1137.171" height="1056.511" viewBox="0 0 1137.171 1056.511">
  <g id="b" data-name="Imagotipo - Dark">
    <g id="c" data-name="Logo">
      <path d="M1135.728,998.383l-21.955,48.618c-3.471,7.713-12.327,11.43-20.28,8.524l-365.625-132.237c-43.804-15.998-76.238-53.571-85.567-99.191l-60.287-293.762h-26.856l-60.287,293.762c-9.335,45.619-41.763,83.193-85.573,99.191l-365.619,132.237c-7.952,2.906-16.809-.811-20.286-8.524l-21.955-48.618c-2.852-6.283-1.376-13.717,3.67-18.478l353.524-332.141c16.955-15.665,28.81-35.951,33.997-58.478L518.822,12.713c1.622-7.427,8.238-12.713,15.858-12.713h67.807c7.62,0,14.242,5.286,15.858,12.713l126.193,576.573c5.193,22.527,17.048,42.813,34.003,58.478l353.524,332.141c5.047,4.761,6.523,12.194,3.664,18.478h0Z" fill="#fff"/>
    </g>
  </g>
</svg>